<?xml version="1.0" encoding="UTF-8"?>
<svg width="500px" height="500px" viewBox="0 0 500 500" version="1.1" xmlns="http://www.w3.org/2000/svg" xmlns:xlink="http://www.w3.org/1999/xlink">
    <!-- Generator: Sketch 48.2 (47327) - http://www.bohemiancoding.com/sketch -->
    <title>Cog/Inactive</title>
    <desc>Created with Sketch.</desc>
    <defs></defs>
    <g id="Symbols" stroke="none" stroke-width="1" fill="none" fill-rule="evenodd">
        <g id="Edit/Active" transform="translate(124.000000, 338.000000)">
            <g id="Group-4" fill="#3576E8">
                <g id="Group-3">
                    <rect id="Rectangle-4" x="0.897435897" y="0.897435897" width="33.2051282" height="33.2051282" rx="2.5649999"></rect>
                </g>
            </g>
            <g id="Group-2" transform="translate(10.000000, 11.000000)" fill="#FFFFFF">
                <path d="M13.8011925,8.95850622 C13.6685322,8.90554064 13.5524696,8.92885038 13.4531269,9.02806932 L12.8166745,9.66451062 C12.7571177,9.72406639 12.7270952,9.79704662 12.7270952,9.88320722 L12.7270952,11.1360752 C12.7270952,11.5737125 12.5716129,11.9481328 12.260038,12.2597022 C11.9483411,12.5712717 11.5739143,12.7269954 11.1363914,12.7269954 L2.86360863,12.7269954 C2.42608574,12.7269954 2.05153687,12.5712717 1.73996199,12.2597022 C1.42838712,11.9481328 1.2726607,11.5737125 1.2726607,11.1360752 L1.2726607,2.8635587 C1.2726607,2.42604345 1.42838712,2.0515011 1.73996199,1.73993166 C2.05153687,1.42836222 2.42608574,1.27263852 2.86360863,1.27263852 L11.1365134,1.27263852 C11.2823544,1.27263852 11.4314905,1.29253112 11.5839218,1.33231633 C11.7034015,1.37210154 11.8093345,1.34561875 11.9020869,1.25274591 L12.3891591,0.765560166 C12.4687309,0.686111789 12.4985093,0.589943861 12.4786164,0.477300464 C12.4587234,0.371247254 12.3990446,0.294971931 12.2995798,0.248596534 C11.9416287,0.0831095924 11.5538993,0 11.1362693,0 L2.86360863,0 C2.07484701,0 1.40031731,0.280082988 0.840141569,0.840248963 C0.280087871,1.40041494 0,2.07481084 0,2.86368074 L0,11.1363193 C0,11.9250671 0.280087871,12.599463 0.840141569,13.159629 C1.40031731,13.719917 2.07484701,14 2.86360863,14 L11.1362693,14 C11.9250309,14 12.5995606,13.719917 13.1597364,13.159629 C13.7199121,12.599463 14,11.9250671 14,11.1363193 L14,9.24713205 C14,9.10776178 13.9336088,9.01171589 13.8011925,8.95850622 L13.8011925,8.95850622 Z" id="Shape"></path>
                <path d="M6,9.00002557 L6,12 L9.00006393,12 L16,4.99997443 L12.9999361,2 L6,9.00002557 L6,9.00002557 Z M8.58326408,11.0000511 L8.58326408,11.0000511 L7.99987215,10.9999233 L7.99987215,10.0001023 L6.99993607,10.0001023 L6.99993607,9.41683075 L8.20827207,8.2084793 L9.79160008,9.7919554 L8.58326408,11.0000511 L8.58326408,11.0000511 Z M13.1561721,3.8436597 L9.51019625,7.4895543 C9.3921882,7.60781957 9.27763217,7.61114379 9.16652816,7.50003836 C9.05542415,7.38893293 9.05887617,7.27437543 9.17701208,7.15636587 L12.8228601,3.51047127 C12.9408681,3.39233385 13.0552963,3.38888179 13.1665282,3.49998721 C13.2778879,3.61109264 13.2740523,3.72565014 13.1561721,3.8436597 L13.1561721,3.8436597 Z" id="Shape"></path>
                <path d="M17.7255114,1.76468819 L16.2353791,0.27448031 C16.0523466,0.0914533257 15.8302046,0 15.5685921,0 C15.3072202,0 15.0849579,0.0914533257 14.9020457,0.27448031 L14,1.17637857 L16.8237064,4 L17.7255114,3.09798141 C17.9085439,2.91507476 18,2.69281911 18,2.4313348 C18,2.16985049 17.9085439,1.94771517 17.7255114,1.76468819 L17.7255114,1.76468819 Z" id="Shape"></path>
            </g>
        </g>
        <g id="Edit/Inactive" transform="translate(161.000000, 338.000000)">
            <g id="Group-4" fill="#ABB6BE">
                <g id="Group-3">
                    <rect id="Rectangle-4" x="0.897435897" y="0.897435897" width="33.2051282" height="33.2051282" rx="2.5649999"></rect>
                </g>
            </g>
            <g id="Group-2" transform="translate(10.000000, 11.000000)" fill="#FFFFFF">
                <path d="M13.8011925,8.95850622 C13.6685322,8.90554064 13.5524696,8.92885038 13.4531269,9.02806932 L12.8166745,9.66451062 C12.7571177,9.72406639 12.7270952,9.79704662 12.7270952,9.88320722 L12.7270952,11.1360752 C12.7270952,11.5737125 12.5716129,11.9481328 12.260038,12.2597022 C11.9483411,12.5712717 11.5739143,12.7269954 11.1363914,12.7269954 L2.86360863,12.7269954 C2.42608574,12.7269954 2.05153687,12.5712717 1.73996199,12.2597022 C1.42838712,11.9481328 1.2726607,11.5737125 1.2726607,11.1360752 L1.2726607,2.8635587 C1.2726607,2.42604345 1.42838712,2.0515011 1.73996199,1.73993166 C2.05153687,1.42836222 2.42608574,1.27263852 2.86360863,1.27263852 L11.1365134,1.27263852 C11.2823544,1.27263852 11.4314905,1.29253112 11.5839218,1.33231633 C11.7034015,1.37210154 11.8093345,1.34561875 11.9020869,1.25274591 L12.3891591,0.765560166 C12.4687309,0.686111789 12.4985093,0.589943861 12.4786164,0.477300464 C12.4587234,0.371247254 12.3990446,0.294971931 12.2995798,0.248596534 C11.9416287,0.0831095924 11.5538993,0 11.1362693,0 L2.86360863,0 C2.07484701,0 1.40031731,0.280082988 0.840141569,0.840248963 C0.280087871,1.40041494 0,2.07481084 0,2.86368074 L0,11.1363193 C0,11.9250671 0.280087871,12.599463 0.840141569,13.159629 C1.40031731,13.719917 2.07484701,14 2.86360863,14 L11.1362693,14 C11.9250309,14 12.5995606,13.719917 13.1597364,13.159629 C13.7199121,12.599463 14,11.9250671 14,11.1363193 L14,9.24713205 C14,9.10776178 13.9336088,9.01171589 13.8011925,8.95850622 L13.8011925,8.95850622 Z" id="Shape"></path>
                <path d="M6,9.00002557 L6,12 L9.00006393,12 L16,4.99997443 L12.9999361,2 L6,9.00002557 L6,9.00002557 Z M8.58326408,11.0000511 L8.58326408,11.0000511 L7.99987215,10.9999233 L7.99987215,10.0001023 L6.99993607,10.0001023 L6.99993607,9.41683075 L8.20827207,8.2084793 L9.79160008,9.7919554 L8.58326408,11.0000511 L8.58326408,11.0000511 Z M13.1561721,3.8436597 L9.51019625,7.4895543 C9.3921882,7.60781957 9.27763217,7.61114379 9.16652816,7.50003836 C9.05542415,7.38893293 9.05887617,7.27437543 9.17701208,7.15636587 L12.8228601,3.51047127 C12.9408681,3.39233385 13.0552963,3.38888179 13.1665282,3.49998721 C13.2778879,3.61109264 13.2740523,3.72565014 13.1561721,3.8436597 L13.1561721,3.8436597 Z" id="Shape"></path>
                <path d="M17.7255114,1.76468819 L16.2353791,0.27448031 C16.0523466,0.0914533257 15.8302046,0 15.5685921,0 C15.3072202,0 15.0849579,0.0914533257 14.9020457,0.27448031 L14,1.17637857 L16.8237064,4 L17.7255114,3.09798141 C17.9085439,2.91507476 18,2.69281911 18,2.4313348 C18,2.16985049 17.9085439,1.94771517 17.7255114,1.76468819 L17.7255114,1.76468819 Z" id="Shape"></path>
            </g>
        </g>
        <g id="Admin-Dashboard/Inactive" transform="translate(240.000000, 277.000000)" fill="#C0C5D2">
            <g id="Group">
                <g id="Group-2">
                    <path d="M0.678534247,7.8262731 L16.9643973,7.8262731 C17.1481507,7.8262731 17.3071781,7.75945614 17.4414795,7.6260807 C17.5756507,7.4928345 17.6428014,7.33477427 17.6428014,7.15228772 L17.6428014,5.8044462 C17.6428014,5.62183041 17.5756507,5.46402865 17.4414795,5.33065322 C17.3071781,5.19727778 17.1481507,5.13059006 16.9643973,5.13059006 L0.678534247,5.13059006 C0.494650685,5.13059006 0.335623288,5.19727778 0.201321918,5.33065322 C0.0670205479,5.46402865 -0.000130136986,5.62195965 -0.000130136986,5.8044462 L-0.000130136986,7.15228772 C-0.000130136986,7.33477427 0.0670205479,7.4928345 0.201321918,7.6260807 C0.335753425,7.75945614 0.494780822,7.8262731 0.678534247,7.8262731 L0.678534247,7.8262731 Z" id="Shape"></path>
                    <path d="M0.678534247,2.78274854 L12.8926712,2.78274854 C13.0764247,2.78274854 13.2355822,2.71606082 13.3700137,2.58268538 C13.5041849,2.44930994 13.5713356,2.29137895 13.5713356,2.1088924 L13.5713356,0.761050877 C13.5713356,0.578564327 13.5041849,0.420633333 13.3700137,0.287128655 C13.2355822,0.153882456 13.0764247,0.0870654971 12.8926712,0.0870654971 L0.678534247,0.0870654971 C0.494650685,0.0870654971 0.335623288,0.153882456 0.201321918,0.287128655 C0.0670205479,0.420504094 -0.000130136986,0.578564327 -0.000130136986,0.761050877 L-0.000130136986,2.1088924 C-0.000130136986,2.29137895 0.0670205479,2.44930994 0.201321918,2.58268538 C0.335753425,2.71606082 0.494780822,2.78274854 0.678534247,2.78274854 L0.678534247,2.78274854 Z" id="Shape"></path>
                    <path d="M18.7985479,15.4173146 C18.6642466,15.2839392 18.505089,15.2172515 18.3213356,15.2172515 L0.678534247,15.2172515 C0.494650685,15.2172515 0.335623288,15.2839392 0.201321918,15.4173146 C0.0670205479,15.5506901 -0.000130136986,15.7086211 -0.000130136986,15.8911076 L-0.000130136986,17.2389491 C-0.000130136986,17.4214357 0.0670205479,17.5794959 0.201321918,17.7130006 C0.335753425,17.8461175 0.494780822,17.9129345 0.678534247,17.9129345 L18.3213356,17.9129345 C18.505089,17.9129345 18.6642466,17.8461175 18.7985479,17.7130006 C18.9328493,17.5794959 19,17.4214357 19,17.2389491 L19,15.8911076 C19,15.7086211 18.9328493,15.5506901 18.7985479,15.4173146 L18.7985479,15.4173146 Z" id="Shape"></path>
                    <path d="M0.678534247,12.8695392 L14.25,12.8695392 C14.4337534,12.8695392 14.592911,12.8027222 14.7270822,12.6693468 C14.8613836,12.5361006 14.9286644,12.3780404 14.9286644,12.1955538 L14.9286644,10.8478415 C14.9286644,10.6654842 14.8613836,10.5072947 14.7270822,10.3740485 C14.592911,10.2406731 14.4337534,10.1738561 14.25,10.1738561 L0.678534247,10.1738561 C0.494650685,10.1738561 0.335623288,10.2406731 0.201321918,10.3740485 C0.0670205479,10.5072947 -0.000130136986,10.6654842 -0.000130136986,10.8478415 L-0.000130136986,12.195683 C-0.000130136986,12.3781696 0.0670205479,12.5362298 0.201321918,12.669476 C0.335753425,12.8028515 0.494780822,12.8695392 0.678534247,12.8695392 L0.678534247,12.8695392 Z" id="Shape"></path>
                </g>
            </g>
        </g>
        <g id="Logout/Inactive" transform="translate(240.000000, 303.000000)" fill="#C0C5D2">
            <path d="M13.4290628,14.4013781 C13.1676698,14.1395349 13.1676698,13.7140396 13.4290628,13.4849268 L16.6964746,10.2118863 L5.08082545,10.2118863 C4.70507309,10.2118863 4.41100602,9.91731266 4.41100602,9.54091301 C4.41100602,9.16451335 4.70507309,8.86993971 5.08082545,8.86993971 L16.6964746,8.86993971 L13.4290628,5.59689922 C13.1676698,5.33505599 13.1676698,4.90956072 13.4290628,4.64771748 C13.6904557,4.38587425 14.1152193,4.38587425 14.3766122,4.64771748 L18.7876182,9.06632214 C18.8202923,9.09905254 18.8529665,9.13178295 18.8693035,9.16451335 C18.8856406,9.16451335 18.8856406,9.18087855 18.8856406,9.18087855 C18.9019776,9.21360896 18.9183147,9.24633936 18.9346518,9.27906977 C18.9509888,9.27906977 18.9509888,9.29543497 18.9509888,9.31180017 C18.9673259,9.32816537 18.9836629,9.36089578 18.9836629,9.39362618 C19,9.44272179 19,9.4754522 19,9.5245478 C19,9.57364341 19,9.60637382 18.9836629,9.65546942 C18.9673259,9.68819983 18.9673259,9.70456503 18.9509888,9.73729543 C18.9346518,9.73729543 18.9346518,9.75366064 18.9346518,9.77002584 C18.9183147,9.78639104 18.9019776,9.81912145 18.8856406,9.85185185 C18.8856406,9.86821705 18.8693035,9.88458226 18.8693035,9.88458226 C18.8529665,9.91731266 18.8202923,9.95004307 18.7876182,9.98277347 L14.3766122,14.4013781 C14.2459157,14.5322997 14.0825451,14.5977606 13.9028375,14.5977606 C13.7231298,14.5977606 13.5597592,14.5322997 13.4290628,14.4013781 Z M0.669819433,19 C0.310404127,19 0.0163370593,18.7054264 0,18.3290267 L0,0.670973299 C0,0.294573643 0.294067068,0 0.669819433,0 L9.49183147,0 C9.86758383,0 10.1616509,0.294573643 10.1616509,0.670973299 L10.1616509,7.26614987 C10.1616509,7.64254953 9.86758383,7.93712317 9.49183147,7.93712317 C9.11607911,7.93712317 8.82201204,7.64254953 8.82201204,7.26614987 L8.82201204,1.3419466 L1.33963887,1.3419466 L1.33963887,17.6580534 L8.82201204,17.6580534 L8.82201204,11.7338501 C8.82201204,11.3574505 9.11607911,11.0628768 9.49183147,11.0628768 C9.86758383,11.0628768 10.1616509,11.3574505 10.1616509,11.7338501 L10.1616509,18.3290267 C10.1616509,18.7054264 9.86758383,19 9.49183147,19 L0.669819433,19 Z" id="logout"></path>
        </g>
        <g id="Logout/Active" transform="translate(265.000000, 303.000000)" fill="#3576E8">
            <path d="M13.4290628,14.4013781 C13.1676698,14.1395349 13.1676698,13.7140396 13.4290628,13.4849268 L16.6964746,10.2118863 L5.08082545,10.2118863 C4.70507309,10.2118863 4.41100602,9.91731266 4.41100602,9.54091301 C4.41100602,9.16451335 4.70507309,8.86993971 5.08082545,8.86993971 L16.6964746,8.86993971 L13.4290628,5.59689922 C13.1676698,5.33505599 13.1676698,4.90956072 13.4290628,4.64771748 C13.6904557,4.38587425 14.1152193,4.38587425 14.3766122,4.64771748 L18.7876182,9.06632214 C18.8202923,9.09905254 18.8529665,9.13178295 18.8693035,9.16451335 C18.8856406,9.16451335 18.8856406,9.18087855 18.8856406,9.18087855 C18.9019776,9.21360896 18.9183147,9.24633936 18.9346518,9.27906977 C18.9509888,9.27906977 18.9509888,9.29543497 18.9509888,9.31180017 C18.9673259,9.32816537 18.9836629,9.36089578 18.9836629,9.39362618 C19,9.44272179 19,9.4754522 19,9.5245478 C19,9.57364341 19,9.60637382 18.9836629,9.65546942 C18.9673259,9.68819983 18.9673259,9.70456503 18.9509888,9.73729543 C18.9346518,9.73729543 18.9346518,9.75366064 18.9346518,9.77002584 C18.9183147,9.78639104 18.9019776,9.81912145 18.8856406,9.85185185 C18.8856406,9.86821705 18.8693035,9.88458226 18.8693035,9.88458226 C18.8529665,9.91731266 18.8202923,9.95004307 18.7876182,9.98277347 L14.3766122,14.4013781 C14.2459157,14.5322997 14.0825451,14.5977606 13.9028375,14.5977606 C13.7231298,14.5977606 13.5597592,14.5322997 13.4290628,14.4013781 Z M0.669819433,19 C0.310404127,19 0.0163370593,18.7054264 0,18.3290267 L0,0.670973299 C0,0.294573643 0.294067068,0 0.669819433,0 L9.49183147,0 C9.86758383,0 10.1616509,0.294573643 10.1616509,0.670973299 L10.1616509,7.26614987 C10.1616509,7.64254953 9.86758383,7.93712317 9.49183147,7.93712317 C9.11607911,7.93712317 8.82201204,7.64254953 8.82201204,7.26614987 L8.82201204,1.3419466 L1.33963887,1.3419466 L1.33963887,17.6580534 L8.82201204,17.6580534 L8.82201204,11.7338501 C8.82201204,11.3574505 9.11607911,11.0628768 9.49183147,11.0628768 C9.86758383,11.0628768 10.1616509,11.3574505 10.1616509,11.7338501 L10.1616509,18.3290267 C10.1616509,18.7054264 9.86758383,19 9.49183147,19 L0.669819433,19 Z" id="logout"></path>
        </g>
        <g id="Admin-Dashboard/Active" transform="translate(265.000000, 277.000000)" fill="#3576E8">
            <g id="Group">
                <g id="Group-2">
                    <path d="M0.678534247,7.8262731 L16.9643973,7.8262731 C17.1481507,7.8262731 17.3071781,7.75945614 17.4414795,7.6260807 C17.5756507,7.4928345 17.6428014,7.33477427 17.6428014,7.15228772 L17.6428014,5.8044462 C17.6428014,5.62183041 17.5756507,5.46402865 17.4414795,5.33065322 C17.3071781,5.19727778 17.1481507,5.13059006 16.9643973,5.13059006 L0.678534247,5.13059006 C0.494650685,5.13059006 0.335623288,5.19727778 0.201321918,5.33065322 C0.0670205479,5.46402865 -0.000130136986,5.62195965 -0.000130136986,5.8044462 L-0.000130136986,7.15228772 C-0.000130136986,7.33477427 0.0670205479,7.4928345 0.201321918,7.6260807 C0.335753425,7.75945614 0.494780822,7.8262731 0.678534247,7.8262731 L0.678534247,7.8262731 Z" id="Shape"></path>
                    <path d="M0.678534247,2.78274854 L12.8926712,2.78274854 C13.0764247,2.78274854 13.2355822,2.71606082 13.3700137,2.58268538 C13.5041849,2.44930994 13.5713356,2.29137895 13.5713356,2.1088924 L13.5713356,0.761050877 C13.5713356,0.578564327 13.5041849,0.420633333 13.3700137,0.287128655 C13.2355822,0.153882456 13.0764247,0.0870654971 12.8926712,0.0870654971 L0.678534247,0.0870654971 C0.494650685,0.0870654971 0.335623288,0.153882456 0.201321918,0.287128655 C0.0670205479,0.420504094 -0.000130136986,0.578564327 -0.000130136986,0.761050877 L-0.000130136986,2.1088924 C-0.000130136986,2.29137895 0.0670205479,2.44930994 0.201321918,2.58268538 C0.335753425,2.71606082 0.494780822,2.78274854 0.678534247,2.78274854 L0.678534247,2.78274854 Z" id="Shape"></path>
                    <path d="M18.7985479,15.4173146 C18.6642466,15.2839392 18.505089,15.2172515 18.3213356,15.2172515 L0.678534247,15.2172515 C0.494650685,15.2172515 0.335623288,15.2839392 0.201321918,15.4173146 C0.0670205479,15.5506901 -0.000130136986,15.7086211 -0.000130136986,15.8911076 L-0.000130136986,17.2389491 C-0.000130136986,17.4214357 0.0670205479,17.5794959 0.201321918,17.7130006 C0.335753425,17.8461175 0.494780822,17.9129345 0.678534247,17.9129345 L18.3213356,17.9129345 C18.505089,17.9129345 18.6642466,17.8461175 18.7985479,17.7130006 C18.9328493,17.5794959 19,17.4214357 19,17.2389491 L19,15.8911076 C19,15.7086211 18.9328493,15.5506901 18.7985479,15.4173146 L18.7985479,15.4173146 Z" id="Shape"></path>
                    <path d="M0.678534247,12.8695392 L14.25,12.8695392 C14.4337534,12.8695392 14.592911,12.8027222 14.7270822,12.6693468 C14.8613836,12.5361006 14.9286644,12.3780404 14.9286644,12.1955538 L14.9286644,10.8478415 C14.9286644,10.6654842 14.8613836,10.5072947 14.7270822,10.3740485 C14.592911,10.2406731 14.4337534,10.1738561 14.25,10.1738561 L0.678534247,10.1738561 C0.494650685,10.1738561 0.335623288,10.2406731 0.201321918,10.3740485 C0.0670205479,10.5072947 -0.000130136986,10.6654842 -0.000130136986,10.8478415 L-0.000130136986,12.195683 C-0.000130136986,12.3781696 0.0670205479,12.5362298 0.201321918,12.669476 C0.335753425,12.8028515 0.494780822,12.8695392 0.678534247,12.8695392 L0.678534247,12.8695392 Z" id="Shape"></path>
                </g>
            </g>
        </g>
        <g id="Delete/Hover" transform="translate(248.000000, -21.000000)" fill="#3576E8" fill-rule="nonzero">
            <g id="icons8-trash-can">
                <path d="M9.5,0.96875 C7.542969,0.96875 5.96875,2.59375 5.96875,4.5625 L5.96875,5 L2,5 C1.449219,5 1,5.449219 1,6 L1,7 L0,7 L0,9 L2,9 L2,24 C2,25.644531 3.355469,27 5,27 L17,27 C18.644531,27 20,25.644531 20,24 L20,9 L22,9 L22,7 L21,7 L21,6 C21,5.449219 20.550781,5 20,5 L16.03125,5 L16.03125,4.5625 C16.03125,2.59375 14.457031,0.96875 12.5,0.96875 L9.5,0.96875 Z M9.5,3.03125 L12.5,3.03125 C13.304688,3.03125 13.96875,3.6875 13.96875,4.5625 L13.96875,5 L8.03125,5 L8.03125,4.5625 C8.03125,3.6875 8.695313,3.03125 9.5,3.03125 Z M4,9 L9.125,9 C9.25,9.011719 9.371094,9.03125 9.5,9.03125 L12.5,9.03125 C12.628906,9.03125 12.75,9.011719 12.875,9 L18,9 L18,24 C18,24.5625 17.5625,25 17,25 L5,25 C4.4375,25 4,24.5625 4,24 L4,9 Z M6,11 L6,23 L8,23 L8,11 L6,11 Z M10,11 L10,23 L12,23 L12,11 L10,11 Z M14,11 L14,23 L16,23 L16,11 L14,11 Z" id="Shape"></path>
            </g>
        </g>
        <g id="Delete/Default" transform="translate(282.000000, -21.000000)" fill="#DCE0E6" fill-rule="nonzero">
            <g id="icons8-trash-can">
                <path d="M9.5,0.96875 C7.542969,0.96875 5.96875,2.59375 5.96875,4.5625 L5.96875,5 L2,5 C1.449219,5 1,5.449219 1,6 L1,7 L0,7 L0,9 L2,9 L2,24 C2,25.644531 3.355469,27 5,27 L17,27 C18.644531,27 20,25.644531 20,24 L20,9 L22,9 L22,7 L21,7 L21,6 C21,5.449219 20.550781,5 20,5 L16.03125,5 L16.03125,4.5625 C16.03125,2.59375 14.457031,0.96875 12.5,0.96875 L9.5,0.96875 Z M9.5,3.03125 L12.5,3.03125 C13.304688,3.03125 13.96875,3.6875 13.96875,4.5625 L13.96875,5 L8.03125,5 L8.03125,4.5625 C8.03125,3.6875 8.695313,3.03125 9.5,3.03125 Z M4,9 L9.125,9 C9.25,9.011719 9.371094,9.03125 9.5,9.03125 L12.5,9.03125 C12.628906,9.03125 12.75,9.011719 12.875,9 L18,9 L18,24 C18,24.5625 17.5625,25 17,25 L5,25 C4.4375,25 4,24.5625 4,24 L4,9 Z M6,11 L6,23 L8,23 L8,11 L6,11 Z M10,11 L10,23 L12,23 L12,11 L10,11 Z M14,11 L14,23 L16,23 L16,11 L14,11 Z" id="Shape"></path>
            </g>
        </g>
        <g id="Add-button/Grey" transform="translate(46.000000, -20.000000)" fill="#DCE0E6">
            <path d="M29.0249785,0 C13.0387597,0 0,13 0,29 C0,45 12.9888028,58 29.0249785,58 C45.0111972,58 58,45 58,29 C58,13 45.0111972,0 29.0249785,0 L29.0249785,0 Z M29.0249785,53.95 C15.2868217,53.95 4.09646856,42.75 4.09646856,29 C4.09646856,15.25 15.2868217,4.05 29.0249785,4.05 C42.7631352,4.05 53.9534884,15.25 53.9534884,29 C53.9534884,42.75 42.7631352,53.95 29.0249785,53.95 Z M42.3634798,26.7 L31.0732127,26.7 L31.0732127,15.35 C31.0732127,14.2 30.1739879,13.3 29.0249785,13.3 C27.875969,13.3 26.9767442,14.2 26.9767442,15.35 L26.9767442,26.65 L15.6864772,26.65 C14.5374677,26.65 13.6382429,27.55 13.6382429,28.7 C13.6382429,29.85 14.5374677,30.75 15.6864772,30.75 L26.9767442,30.75 L26.9767442,42.05 C26.9767442,43.2 27.875969,44.1 29.0249785,44.1 C30.1739879,44.1 31.0732127,43.2 31.0732127,42.05 L31.0732127,30.75 L42.3634798,30.75 C43.5124892,30.75 44.411714,29.85 44.411714,28.7 C44.411714,27.55 43.5124892,26.7 42.3634798,26.7 Z" id="add"></path>
        </g>
        <g id="Add-button/White" transform="translate(113.000000, -20.000000)" fill="#FFFFFF">
            <path d="M29.0249785,0 C13.0387597,0 0,13 0,29 C0,45 12.9888028,58 29.0249785,58 C45.0111972,58 58,45 58,29 C58,13 45.0111972,0 29.0249785,0 L29.0249785,0 Z M29.0249785,53.95 C15.2868217,53.95 4.09646856,42.75 4.09646856,29 C4.09646856,15.25 15.2868217,4.05 29.0249785,4.05 C42.7631352,4.05 53.9534884,15.25 53.9534884,29 C53.9534884,42.75 42.7631352,53.95 29.0249785,53.95 Z M42.3634798,26.7 L31.0732127,26.7 L31.0732127,15.35 C31.0732127,14.2 30.1739879,13.3 29.0249785,13.3 C27.875969,13.3 26.9767442,14.2 26.9767442,15.35 L26.9767442,26.65 L15.6864772,26.65 C14.5374677,26.65 13.6382429,27.55 13.6382429,28.7 C13.6382429,29.85 14.5374677,30.75 15.6864772,30.75 L26.9767442,30.75 L26.9767442,42.05 C26.9767442,43.2 27.875969,44.1 29.0249785,44.1 C30.1739879,44.1 31.0732127,43.2 31.0732127,42.05 L31.0732127,30.75 L42.3634798,30.75 C43.5124892,30.75 44.411714,29.85 44.411714,28.7 C44.411714,27.55 43.5124892,26.7 42.3634798,26.7 Z" id="add"></path>
        </g>
        <g id="Notifications/Empty" transform="translate(268.000000, 147.000000)" fill="#C0C5D2">
            <path d="M15.6929752,9.81818182 L15.7043281,9.81818182 L15.7043281,18.2131661 L16.8844221,19.2523511 L16.8844221,21.0909091 L11.5255721,21.0909091 L5.35885001,21.0909091 L0,21.0909091 L0,19.2523511 L1.18009402,18.2131661 L1.18009402,9.81818182 L1.19133853,9.81818182 C1.18387495,9.6636247 1.18009402,9.50860406 1.18009402,9.35328072 C1.18009402,5.47246155 3.54042301,2.65782956 6.7279738,1.91909253 C6.72102538,1.85611102 6.71745826,1.79210905 6.71745826,1.72727273 C6.71745826,0.773326341 7.48965639,0 8.44221106,0 C9.39476572,0 10.1669639,0.773326341 10.1669639,1.72727273 C10.1669639,1.79443805 10.1631359,1.860708 10.1556864,1.92587569 C13.3353585,2.67492326 15.7043281,5.48423919 15.7043281,9.35328072 C15.7043281,9.50860406 15.7005102,9.6636247 15.6929752,9.81818182 Z M5.41386883,21.5454545 L11.4705533,21.5454545 C11.1917484,22.9445949 9.94188832,24 8.44221106,24 C6.9425338,24 5.69267375,22.9445949 5.41386883,21.5454545 Z" id="Notifications-Shape"></path>
        </g>
        <g id="Notifications/Active" transform="translate(248.000000, 147.000000)" fill="#3576E8">
            <path d="M15.6929752,9.81818182 L15.7043281,9.81818182 L15.7043281,18.2131661 L16.8844221,19.2523511 L16.8844221,21.0909091 L11.5255721,21.0909091 L5.35885001,21.0909091 L0,21.0909091 L0,19.2523511 L1.18009402,18.2131661 L1.18009402,9.81818182 L1.19133853,9.81818182 C1.18387495,9.6636247 1.18009402,9.50860406 1.18009402,9.35328072 C1.18009402,5.47246155 3.54042301,2.65782956 6.7279738,1.91909253 C6.72102538,1.85611102 6.71745826,1.79210905 6.71745826,1.72727273 C6.71745826,0.773326341 7.48965639,0 8.44221106,0 C9.39476572,0 10.1669639,0.773326341 10.1669639,1.72727273 C10.1669639,1.79443805 10.1631359,1.860708 10.1556864,1.92587569 C13.3353585,2.67492326 15.7043281,5.48423919 15.7043281,9.35328072 C15.7043281,9.50860406 15.7005102,9.6636247 15.6929752,9.81818182 Z M5.41386883,21.5454545 L11.4705533,21.5454545 C11.1917484,22.9445949 9.94188832,24 8.44221106,24 C6.9425338,24 5.69267375,22.9445949 5.41386883,21.5454545 Z" id="Notifications-Shape"></path>
        </g>
        <g id="Cog/Inactive" fill="#C0C5D2">
            <g id="cog2">
                <path d="M497.39892,206.87065 C495.656885,204.589223 493.38345,203.230756 490.562632,202.799242 L430.993827,193.685523 C427.7375,183.269272 423.286521,172.637265 417.644885,161.785506 C421.548482,156.359626 427.405874,148.712253 435.217063,138.835394 C443.028252,128.958535 448.56201,121.74667 451.818336,117.187812 C453.556376,114.798507 454.419402,112.30532 454.419402,109.700258 C454.419402,106.663683 453.664254,104.278374 452.141971,102.540335 C444.330783,91.4688232 426.426979,73.0256271 398.430559,47.1987598 C395.833489,45.0292071 393.116554,43.9464284 390.299731,43.9464284 C387.043404,43.9464284 384.438343,44.9213287 382.484547,46.8711294 L336.264684,81.7038381 C327.362726,77.1449805 317.597741,73.1295099 306.965734,69.6574264 L297.852015,9.7649851 C297.636258,6.94416698 296.385669,4.61079902 294.108238,2.76488121 C291.826811,0.918963409 289.173804,0 286.129238,0 L213.866752,0 C207.573851,0 203.666259,3.03657474 202.147971,9.11371972 C199.327153,19.9614834 196.178705,40.142719 192.706622,69.6574264 C182.506128,72.9177488 172.633265,77.0410976 163.084037,82.0314685 L118.162709,47.1987598 C115.341891,45.0292071 112.521073,43.9464284 109.700255,43.9464284 C104.925641,43.9464284 94.673206,51.7016805 78.9389547,67.2201756 C63.2047033,82.7386708 52.5207551,94.4015151 46.8751236,102.212704 C44.9213275,105.033522 43.9464272,107.530705 43.9464272,109.700258 C43.9464272,112.30532 45.0292058,114.910381 47.1987585,117.511447 C61.7383574,135.091617 73.34926,150.062729 82.0314662,162.436771 C76.6055868,172.417513 72.3743597,182.40225 69.3377851,192.382992 L8.79008454,201.496712 C6.40477524,201.93222 4.34310086,203.34263 2.60506142,205.731934 C0.867021975,208.117244 0,210.614427 0,213.215493 L0,285.481976 C0,288.30679 0.867021975,290.851919 2.60506142,293.12935 C4.34310086,295.410777 6.62053186,296.77324 9.4413499,297.204753 L69.0141501,305.994838 C72.0507248,316.626845 76.4977085,327.36673 82.3590967,338.214494 C78.4555,343.640374 72.5941118,351.287747 64.7829231,361.164606 C56.9717343,371.041465 51.433981,378.25333 48.1816498,382.812188 C46.4436103,385.205488 45.5765883,387.69468 45.5765883,390.299742 C45.5765883,393.12056 46.335732,395.613748 47.8540193,397.7833 C56.3164735,409.506077 74.2202775,427.737512 101.565431,452.47361 C103.954736,454.862915 106.667676,456.053572 109.704251,456.053572 C112.960577,456.053572 115.673517,455.078671 117.84307,453.128871 L163.743293,418.292166 C172.645251,422.851024 182.410236,426.866495 193.042243,430.342574 L202.155962,490.235015 C202.375715,493.055833 203.622308,495.389201 205.899739,497.235119 C208.17717,499.085032 210.838169,500 213.874743,500 L286.141225,500 C292.442117,500 296.345714,496.963425 297.867997,490.88628 C300.684819,480.034521 303.829272,459.857281 307.301356,430.342574 C317.501849,427.086247 327.378708,422.958902 336.92394,417.968531 L381.849263,453.128871 C384.885838,455.078671 387.710652,456.053572 390.311718,456.053572 C395.082336,456.053572 405.28283,448.354256 420.905207,432.94364 C436.535576,417.537018 447.275461,405.814242 453.128858,397.7833 C455.082654,395.613748 456.06155,393.12056 456.06155,390.299742 C456.06155,387.478924 454.978771,384.757993 452.805223,382.160922 C437.182846,363.062466 425.571943,348.091353 417.972515,337.239594 C422.311621,329.208653 426.546843,319.335789 430.670192,307.617008 L490.890262,298.507284 C493.491328,298.071775 495.668872,296.65737 497.402916,294.268066 C499.13696,291.878761 499.999986,289.381578 499.999986,286.780512 L499.999986,214.518024 C500.003982,211.697206 499.140955,209.152076 497.39892,206.87065 L497.39892,206.87065 Z M308.927521,308.919539 C292.653878,325.197178 273.012035,333.335997 250.005986,333.335997 C226.999938,333.335997 207.36209,325.197178 191.084451,308.919539 C174.810809,292.645895 166.671989,273.008047 166.671989,250.001998 C166.671989,226.995949 174.806813,207.3581 191.084451,191.080461 C207.36209,174.806818 227.003933,166.667998 250.005986,166.667998 C273.012035,166.667998 292.653878,174.806818 308.927521,191.080461 C325.201164,207.3581 333.339983,226.995949 333.339983,250.001998 C333.339983,273.008047 325.201164,292.645895 308.927521,308.919539 L308.927521,308.919539 Z" id="Shape"></path>
            </g>
        </g>
        <g id="Cog/Active" transform="translate(280.000000, 238.000000)" fill="#3576E8">
            <g id="cog2">
                <path d="M23.8751482,9.9297912 C23.7915305,9.82028272 23.6824056,9.75507627 23.5470063,9.73436364 L20.6877037,9.29690509 C20.5314,8.79692507 20.317753,8.28658873 20.0469545,7.76570429 C20.2343271,7.50526206 20.515482,7.13818812 20.890419,6.6640989 C21.2653561,6.19000967 21.5309765,5.84384015 21.6872801,5.62501498 C21.770706,5.51032835 21.8121313,5.39065534 21.8121313,5.26561239 C21.8121313,5.1198568 21.7758842,5.00536195 21.7028146,4.92193606 C21.3278776,4.39050351 20.468495,3.5052301 19.1246668,2.26554047 C19.0000075,2.16140194 18.8695946,2.10942856 18.7343871,2.10942856 C18.5780834,2.10942856 18.4530405,2.15622378 18.3592582,2.24981421 L16.1407048,3.92178423 C15.7134108,3.70295906 15.2446916,3.51021648 14.7343552,3.34355647 L14.2968967,0.468719285 C14.2865404,0.333320015 14.2265121,0.221318353 14.1171954,0.132714298 C14.0076869,0.0441102436 13.8803426,0 13.7342034,0 L10.2656041,0 C9.96354485,0 9.77598042,0.145755588 9.70310263,0.437458547 C9.56770337,0.958151205 9.41657784,1.92685051 9.24991784,3.34355647 C8.76029415,3.50005194 8.28639672,3.69797269 7.82803376,3.93751049 L5.67181004,2.26554047 C5.53641078,2.16140194 5.40101151,2.10942856 5.26561224,2.10942856 C5.03643077,2.10942856 4.54431389,2.48168066 3.78906982,3.22656843 C3.03382576,3.9714562 2.52099625,4.53127272 2.25000593,4.9062098 C2.15622372,5.04160906 2.10942851,5.16147386 2.10942851,5.26561239 C2.10942851,5.39065534 2.16140188,5.51569829 2.26554041,5.64054946 C2.96344116,6.4843976 3.52076448,7.203011 3.93751038,7.79696502 C3.67706817,8.27604063 3.47396927,8.75530801 3.32821368,9.23438362 L0.421924058,9.67184216 C0.307429211,9.69274658 0.208468841,9.76044622 0.125042948,9.87513285 C0.0416170548,9.9896277 0,10.1094925 0,10.2343437 L0,13.7031349 C0,13.8387259 0.0416170548,13.9608921 0.125042948,14.0702088 C0.208468841,14.1797173 0.317785529,14.2451155 0.453184795,14.2658281 L3.31267921,14.6877522 C3.45843479,15.1980886 3.67189001,15.7136031 3.95323664,16.2342957 C3.765864,16.4947379 3.48451737,16.8618119 3.10958031,17.3359011 C2.73464325,17.8099903 2.46883109,18.1561599 2.31271919,18.374985 C2.2292933,18.4898634 2.18767624,18.6093447 2.18767624,18.7343876 C2.18767624,18.8697869 2.22411514,18.9894599 2.29699293,19.0935984 C2.70319073,19.6562917 3.56257332,20.5314006 4.87514071,21.7187333 C4.98982734,21.8334199 5.12004844,21.8905714 5.26580403,21.8905714 C5.42210771,21.8905714 5.55232882,21.8437762 5.65646735,21.7501858 L7.85967807,20.078024 C8.28697207,20.2968492 8.75569134,20.4895917 9.26602766,20.6564435 L9.7034862,23.5312807 C9.7140343,23.66668 9.7738708,23.7786816 9.88318749,23.8672857 C9.99250418,23.9560815 10.1202321,24 10.2659877,24 L13.7347788,24 C14.0372216,24 14.2245943,23.8542444 14.2976638,23.5625415 C14.4328713,23.041657 14.5838051,22.0731495 14.7504651,20.6564435 C15.2400888,20.5001398 15.714178,20.3020273 16.1723491,20.0624895 L18.3287646,21.7501858 C18.4745202,21.8437762 18.6101113,21.8905714 18.7349624,21.8905714 C18.9639521,21.8905714 19.4535758,21.5210043 20.2034499,20.7812947 C20.9537076,20.0417769 21.4692221,19.4790836 21.7501852,19.0935984 C21.8439674,18.9894599 21.8909544,18.8697869 21.8909544,18.7343876 C21.8909544,18.5989883 21.838981,18.4683837 21.7346507,18.3437243 C20.9847766,17.4269983 20.4274533,16.7083849 20.0626807,16.1875005 C20.2709578,15.8020153 20.4742485,15.3281179 20.6721692,14.7656164 L23.5627326,14.3283496 C23.6875838,14.3074452 23.7921058,14.2395538 23.87534,14.1248671 C23.9585741,14.0101805 23.9999993,13.8903157 23.9999993,13.7654646 L23.9999993,10.2968651 C24.0001911,10.1614659 23.9587658,10.0392997 23.8751482,9.9297912 L23.8751482,9.9297912 Z M14.828521,14.8281379 C14.0473862,15.6094645 13.1045777,16.0001279 12.0002873,16.0001279 C10.895997,16.0001279 9.95338031,15.6094645 9.17205367,14.8281379 C8.39091881,14.047003 8.00025549,13.1043863 8.00025549,12.0000959 C8.00025549,10.8958055 8.39072703,9.9531888 9.17205367,9.17186214 C9.95338031,8.39072726 10.8961888,8.00006393 12.0002873,8.00006393 C13.1045777,8.00006393 14.0473862,8.39072726 14.828521,9.17186214 C15.6096559,9.9531888 16.0003192,10.8958055 16.0003192,12.0000959 C16.0003192,13.1043863 15.6096559,14.047003 14.828521,14.8281379 L14.828521,14.8281379 Z" id="Shape"></path>
            </g>
        </g>
        <g id="User-Icon/Active" transform="translate(27.000000, 244.000000)" fill="#3576E8">
            <g id="User-icon">
                <path d="M26.4995475,28.5 C30.4083688,28.5 33.7447591,27.1175238 36.5091709,24.3534762 C39.2744877,21.5894286 40.6569199,18.2540238 40.6569199,14.3468095 C40.6569199,10.4400476 39.2744877,7.10464286 36.5091709,4.34014286 C33.7443065,1.57609524 30.4074637,0.194071429 26.4995475,0.194071429 C22.5916312,0.194071429 19.2547884,1.57609524 16.4899241,4.34014286 C13.7246073,7.10464286 12.3421751,10.4400476 12.3421751,14.3468095 C12.3421751,18.2540238 13.7246073,21.5894286 16.4899241,24.3534762 C19.2552409,27.1175238 22.5916312,28.5 26.4995475,28.5 L26.4995475,28.5 Z" id="Shape"></path>
                <path d="M52.3250094,43.4453095 C52.2385791,42.2044286 52.0666235,40.865381 51.8086902,39.4277143 C51.5507568,37.9900476 51.2244938,36.6573333 50.8312586,35.4286667 C50.4380234,34.2004524 49.9094863,33.0025476 49.2456474,31.8354048 C48.5822609,30.6682619 47.8202263,29.6730238 46.9595435,28.8496905 C46.0988607,28.0263571 45.0485743,27.3695 43.8077792,26.8782143 C42.5660791,26.3869286 41.1958648,26.1408333 39.6966839,26.1408333 C39.4754042,26.1408333 38.959085,26.4050238 38.1481788,26.9334048 C37.3372726,27.4617857 36.4218356,28.0516905 35.4018676,28.7026667 C34.3818996,29.3531905 33.0542218,29.9435476 31.4201915,30.4710238 C29.7857087,30.9994048 28.1453432,31.2635952 26.4981899,31.2635952 C24.8514892,31.2635952 23.2111237,30.9994048 21.5766409,30.4710238 C19.9426106,29.9435476 18.6149327,29.3531905 17.5949648,28.7026667 C16.5749968,28.0516905 15.6595598,27.4617857 14.8486536,26.9334048 C14.0372949,26.4050238 13.5214282,26.1408333 13.3001485,26.1408333 C11.8009676,26.1408333 10.4307533,26.3869286 9.18950573,26.8782143 C7.94825813,27.3695 6.89751918,28.0268095 6.03728889,28.8496905 C5.1770586,29.6730238 4.41502398,30.6682619 3.75163754,31.8354048 C3.08825111,33.0025476 2.55971404,34.2009048 2.16647883,35.4286667 C1.77324363,36.6573333 1.4474331,37.9900476 1.18949977,39.4277143 C0.931113918,40.865381 0.759158363,42.2039762 0.673180585,43.4453095 C0.587202807,44.6866429 0.544213918,45.9578333 0.544213918,47.2602381 C0.544213918,50.2084048 1.44155041,52.5368095 3.23577088,54.2445476 C5.02999135,55.9518333 7.41429088,56.8054762 10.388217,56.8054762 L42.610878,56.8054762 C45.5848041,56.8054762 47.9686511,55.9518333 49.7633241,54.2445476 C51.5579971,52.5368095 52.4548811,50.2088571 52.4548811,47.2602381 C52.4548811,45.9578333 52.4118922,44.6861905 52.3250094,43.4453095 L52.3250094,43.4453095 Z" id="Shape"></path>
            </g>
        </g>
        <g id="User-Icon/Inactive" transform="translate(93.000000, 244.000000)" fill="#C0C5D2">
            <g id="User-icon">
                <path d="M26.4995475,28.5 C30.4083688,28.5 33.7447591,27.1175238 36.5091709,24.3534762 C39.2744877,21.5894286 40.6569199,18.2540238 40.6569199,14.3468095 C40.6569199,10.4400476 39.2744877,7.10464286 36.5091709,4.34014286 C33.7443065,1.57609524 30.4074637,0.194071429 26.4995475,0.194071429 C22.5916312,0.194071429 19.2547884,1.57609524 16.4899241,4.34014286 C13.7246073,7.10464286 12.3421751,10.4400476 12.3421751,14.3468095 C12.3421751,18.2540238 13.7246073,21.5894286 16.4899241,24.3534762 C19.2552409,27.1175238 22.5916312,28.5 26.4995475,28.5 L26.4995475,28.5 Z" id="Shape"></path>
                <path d="M52.3250094,43.4453095 C52.2385791,42.2044286 52.0666235,40.865381 51.8086902,39.4277143 C51.5507568,37.9900476 51.2244938,36.6573333 50.8312586,35.4286667 C50.4380234,34.2004524 49.9094863,33.0025476 49.2456474,31.8354048 C48.5822609,30.6682619 47.8202263,29.6730238 46.9595435,28.8496905 C46.0988607,28.0263571 45.0485743,27.3695 43.8077792,26.8782143 C42.5660791,26.3869286 41.1958648,26.1408333 39.6966839,26.1408333 C39.4754042,26.1408333 38.959085,26.4050238 38.1481788,26.9334048 C37.3372726,27.4617857 36.4218356,28.0516905 35.4018676,28.7026667 C34.3818996,29.3531905 33.0542218,29.9435476 31.4201915,30.4710238 C29.7857087,30.9994048 28.1453432,31.2635952 26.4981899,31.2635952 C24.8514892,31.2635952 23.2111237,30.9994048 21.5766409,30.4710238 C19.9426106,29.9435476 18.6149327,29.3531905 17.5949648,28.7026667 C16.5749968,28.0516905 15.6595598,27.4617857 14.8486536,26.9334048 C14.0372949,26.4050238 13.5214282,26.1408333 13.3001485,26.1408333 C11.8009676,26.1408333 10.4307533,26.3869286 9.18950573,26.8782143 C7.94825813,27.3695 6.89751918,28.0268095 6.03728889,28.8496905 C5.1770586,29.6730238 4.41502398,30.6682619 3.75163754,31.8354048 C3.08825111,33.0025476 2.55971404,34.2009048 2.16647883,35.4286667 C1.77324363,36.6573333 1.4474331,37.9900476 1.18949977,39.4277143 C0.931113918,40.865381 0.759158363,42.2039762 0.673180585,43.4453095 C0.587202807,44.6866429 0.544213918,45.9578333 0.544213918,47.2602381 C0.544213918,50.2084048 1.44155041,52.5368095 3.23577088,54.2445476 C5.02999135,55.9518333 7.41429088,56.8054762 10.388217,56.8054762 L42.610878,56.8054762 C45.5848041,56.8054762 47.9686511,55.9518333 49.7633241,54.2445476 C51.5579971,52.5368095 52.4548811,50.2088571 52.4548811,47.2602381 C52.4548811,45.9578333 52.4118922,44.6861905 52.3250094,43.4453095 L52.3250094,43.4453095 Z" id="Shape"></path>
            </g>
        </g>
        <g id="Account/Active" transform="translate(236.000000, 190.000000)" fill="#3576E8">
            <g id="Group" transform="translate(0.000000, 1.000000)">
                <path d="M10.9998721,10.5876023 L24,10.5876023 L24,7.94075247 C24,6.92615378 23.6561401,6.05449636 22.9684204,5.32659235 C22.2808924,4.59868835 21.4581602,4.23483787 20.4996484,4.23483787 L11.9998082,4.23483787 L11.9998082,3.70550852 C11.9998082,2.69090983 11.6561401,1.81965848 10.9686122,1.09195752 C10.2810842,0.364053522 9.4581602,0 8.49984018,0 L3.49996804,0 C2.54164802,0 1.71872403,0.364053522 1.03119606,1.09195752 C0.343668094,1.81965848 0,2.69090983 0,3.70550852 L0,19.5862013 C0,19.6304644 0.00268490699,19.6994985 0.00786294189,19.7933037 C0.0130409768,19.8869058 0.0157258838,19.95594 0.0157258838,20 L0.0937799655,19.9011188 L5.3594579,13.3499827 C5.99482197,12.5558872 6.84900595,11.8968143 7.92181807,11.3731701 C8.99463019,10.8495259 10.02084,10.5876023 10.9998721,10.5876023 Z" id="Shape"></path>
                <path d="M29.5746741,13.2238139 C29.2910579,13.074675 28.9672349,13 28.6032049,13 L11.1323306,13 C10.4257538,13 9.65768417,13.2035631 8.82812165,13.6102673 C7.99855914,14.0173935 7.35347524,14.5124842 6.89326415,15.097227 L1.49785577,21.9029839 C1.16595192,22.3039926 1,22.6822192 1,23.0374525 C1,23.3810839 1.14190663,23.627469 1.4255228,23.776397 C1.70913897,23.925325 2.03296202,24 2.39699195,24 L19.8682605,24 C20.5746402,24 21.3425127,23.7964369 22.1722723,23.3897327 C23.0018348,22.9830284 23.6467216,22.4875158 24.1071298,21.9029839 L29.5025382,15.097227 C29.834245,14.6962183 29.9999998,14.3182027 29.9999998,13.9625475 C30.0001969,13.6189161 29.8584873,13.3727419 29.5746741,13.2238139 L29.5746741,13.2238139 Z" id="Shape"></path>
            </g>
        </g>
        <g id="Account/Inactive" transform="translate(282.000000, 190.000000)">
            <g id="Group" transform="translate(0.000000, 1.000000)">
                <path d="M10.9998721,10.5876023 L24,10.5876023 L24,7.94075247 C24,6.92615378 23.6561401,6.05449636 22.9684204,5.32659235 C22.2808924,4.59868835 21.4581602,4.23483787 20.4996484,4.23483787 L11.9998082,4.23483787 L11.9998082,3.70550852 C11.9998082,2.69090983 11.6561401,1.81965848 10.9686122,1.09195752 C10.2810842,0.364053522 9.4581602,0 8.49984018,0 L3.49996804,0 C2.54164802,0 1.71872403,0.364053522 1.03119606,1.09195752 C0.343668094,1.81965848 0,2.69090983 0,3.70550852 L0,19.5862013 C0,19.6304644 0.00268490699,19.6994985 0.00786294189,19.7933037 C0.0130409768,19.8869058 0.0157258838,19.95594 0.0157258838,20 L0.0937799655,19.9011188 L5.3594579,13.3499827 C5.99482197,12.5558872 6.84900595,11.8968143 7.92181807,11.3731701 C8.99463019,10.8495259 10.02084,10.5876023 10.9998721,10.5876023 Z" id="Shape" fill="#DCE0E6"></path>
                <path d="M29.5746741,13.2238139 C29.2910579,13.074675 28.9672349,13 28.6032049,13 L11.1323306,13 C10.4257538,13 9.65768417,13.2035631 8.82812165,13.6102673 C7.99855914,14.0173935 7.35347524,14.5124842 6.89326415,15.097227 L1.49785577,21.9029839 C1.16595192,22.3039926 1,22.6822192 1,23.0374525 C1,23.3810839 1.14190663,23.627469 1.4255228,23.776397 C1.70913897,23.925325 2.03296202,24 2.39699195,24 L19.8682605,24 C20.5746402,24 21.3425127,23.7964369 22.1722723,23.3897327 C23.0018348,22.9830284 23.6467216,22.4875158 24.1071298,21.9029839 L29.5025382,15.097227 C29.834245,14.6962183 29.9999998,14.3182027 29.9999998,13.9625475 C30.0001969,13.6189161 29.8584873,13.3727419 29.5746741,13.2238139 L29.5746741,13.2238139 Z" id="Shape" fill="#C0C5D2"></path>
            </g>
        </g>
    </g>
</svg>