<?xml version="1.0" encoding="UTF-8"?>
<svg width="550px" height="550px" viewBox="0 0 550 550" version="1.1" xmlns="http://www.w3.org/2000/svg" xmlns:xlink="http://www.w3.org/1999/xlink">
    <!-- Generator: Sketch 48.2 (47327) - http://www.bohemiancoding.com/sketch -->
    <title>User icon</title>
    <desc>Created with Sketch.</desc>
    <defs>
        <rect id="path-1" x="0" y="0" width="550" height="550" rx="275"></rect>
    </defs>
    <g id="A1-Admin-sign-in" stroke="none" stroke-width="1" fill="none" fill-rule="evenodd" transform="translate(-835.000000, -265.000000)">
        <g id="User-icon" transform="translate(835.000000, 265.000000)">
            <g id="Top-Part">
                <use fill="#EFF2F5" fill-rule="evenodd" xlink:href="#path-1"></use>
                <rect stroke="#E6EAEE" stroke-width="3.47727249" x="1.73863624" y="1.73863624" width="546.522728" height="546.522728" rx="273.261364"></rect>
            </g>
            <path d="M274.997943,256.818182 C292.765313,256.818182 307.930723,250.534199 320.496231,237.970346 C333.065853,225.406494 339.349636,210.245563 339.349636,192.485498 C339.349636,174.727489 333.065853,159.566558 320.496231,147.000649 C307.928666,134.436797 292.761199,128.15487 274.997943,128.15487 C257.234687,128.15487 242.06722,134.436797 229.499655,147.000649 C216.930033,159.566558 210.64625,174.727489 210.64625,192.485498 C210.64625,210.245563 216.930033,225.406494 229.499655,237.970346 C242.069277,250.534199 257.234687,256.818182 274.997943,256.818182 L274.997943,256.818182 Z" id="Shape" fill="#3576E8"></path>
            <path d="M392.386406,324.751407 C391.993541,319.111039 391.211925,313.024459 390.039501,306.48961 C388.867077,299.954762 387.384063,293.89697 385.59663,288.312121 C383.809197,282.729329 381.406756,277.284307 378.389306,271.979113 C375.373913,266.673918 371.91012,262.150108 367.997925,258.407684 C364.08573,254.66526 359.311701,251.679545 353.671724,249.446429 C348.027632,247.213312 341.799385,246.094697 334.984927,246.094697 C333.97911,246.094697 331.632205,247.295563 327.946267,249.697294 C324.26033,252.099026 320.099253,254.780411 315.463035,257.739394 C310.826817,260.69632 304.791917,263.379762 297.364507,265.777381 C289.935039,268.179113 282.478833,269.379978 274.991772,269.379978 C267.506769,269.379978 260.050562,268.179113 252.621095,265.777381 C245.193685,263.379762 239.158785,260.69632 234.522567,257.739394 C229.886349,254.780411 225.725272,252.099026 222.039334,249.697294 C218.35134,247.295563 216.006492,246.094697 215.000675,246.094697 C208.186216,246.094697 201.95797,247.213312 196.315935,249.446429 C190.673901,251.679545 185.897814,254.667316 181.987677,258.407684 C178.077539,262.150108 174.613745,266.673918 171.598352,271.979113 C168.58296,277.284307 166.180518,282.731385 164.393086,288.312121 C162.605653,293.89697 161.124696,299.954762 159.952272,306.48961 C158.777791,313.024459 157.996174,319.108983 157.605366,324.751407 C157.214558,330.393831 157.019154,336.17197 157.019154,342.091991 C157.019154,355.492749 161.097956,366.076407 169.253504,373.838853 C177.409052,381.599242 188.246777,385.479437 201.764623,385.479437 L348.231264,385.479437 C361.74911,385.479437 372.584778,381.599242 380.742382,373.838853 C388.899987,366.076407 392.976732,355.494805 392.976732,342.091991 C392.976732,336.17197 392.781328,330.391775 392.386406,324.751407 L392.386406,324.751407 Z" id="Shape" fill="#3576E8"></path>
        </g>
    </g>
</svg>